<svg width="48" height="48" viewBox="0 0 48 48" fill="none" xmlns="http://www.w3.org/2000/svg">
<rect width="48" height="48" fill="#323238"/>
<path d="M12.0469 13.4844C12.1641 13.4844 12.1266 13.3907 12.1359 13.3297C12.2766 12.3594 12.7781 11.6516 13.7156 11.3469C14.4703 11.1032 15.2578 11.1313 15.9609 11.5344C16.4016 11.7922 16.7391 12.1907 16.9172 12.6828C17.0484 13.0485 17.1469 13.4282 17.1047 13.8172C17.0063 14.7969 16.5656 15.6125 15.4875 15.9922C14.6719 16.2735 13.8797 16.1703 13.1344 15.725C13.0875 15.5563 12.9703 15.4719 12.8016 15.4438C12.7969 15.3782 12.7875 15.3125 12.6984 15.3125C12.3609 14.9375 12.2016 14.4828 12.1359 13.9907C12.1266 13.9344 12.15 13.8547 12.0469 13.8594C12.0469 13.7328 12.0469 13.611 12.0469 13.4844Z" fill="white"/>
<path d="M24.9469 21.1297C25.1485 21.0079 25.2282 20.8297 25.3313 20.6844C25.8422 19.9813 26.475 19.4375 27.2625 19.0485C28.3407 18.5188 29.4844 18.4625 30.6375 18.5704C31.5235 18.65 32.3625 18.95 33.1266 19.4375C34.036 20.0188 34.6875 20.825 35.1328 21.7907C35.4047 22.3766 35.5828 23 35.6907 23.6469C35.7891 24.2516 35.8641 24.8469 35.8641 25.461C35.8594 28.5079 35.8594 31.5547 35.8688 34.6016C35.8688 34.8172 35.8078 34.8735 35.5969 34.8688C34.1578 34.8594 32.7235 34.8594 31.2844 34.8688C31.0735 34.8688 31.0266 34.8079 31.0266 34.6063C31.0313 31.7329 31.0453 28.8547 31.0219 25.9813C31.0172 25.3297 30.9282 24.6829 30.5907 24.0875C30.2907 23.5625 29.8735 23.1875 29.325 22.9719C28.5891 22.6813 27.8297 22.625 27.061 22.8407C26.2828 23.0563 25.7438 23.5672 25.3594 24.261C25.1438 24.65 25.0688 25.0579 25.0078 25.4938C24.9469 25.9625 24.9563 26.4219 24.9563 26.886C24.9469 29.45 24.9469 32.0094 24.9563 34.5735C24.9563 34.8079 24.9 34.8735 24.661 34.8688C23.2407 34.8547 21.8157 34.8594 20.3953 34.8688C20.1985 34.8688 20.1282 34.8079 20.1328 34.625C20.1375 34.4938 20.1469 34.3625 20.1469 34.2313C20.1469 29.286 20.1516 24.3407 20.1422 19.3954C20.1422 19.1891 20.1844 19.1141 20.4094 19.1141C21.8391 19.1235 23.2688 19.1235 24.6985 19.1141C24.8907 19.1141 24.9563 19.161 24.9516 19.3625C24.9375 19.9344 24.9469 20.511 24.9469 21.1297Z" fill="white"/>
<path d="M17.1094 19.2547C17.1094 19.4188 17.114 19.5829 17.114 19.7469C17.114 24.6829 17.114 29.6188 17.114 34.5594C17.114 34.8594 17.114 34.8594 16.8094 34.8594C15.3187 34.8594 13.8234 34.8594 12.3328 34.8594C12.3281 34.7422 12.3234 34.625 12.3234 34.5079C12.3234 30.8141 12.3234 27.125 12.3234 23.4313C12.3234 22.1141 12.3281 20.7922 12.3187 19.475C12.3187 19.3063 12.3609 19.2454 12.539 19.2454C14.0625 19.2547 15.5859 19.25 17.1094 19.2547Z" fill="white"/>
<path d="M17.1094 19.2547C15.586 19.2547 14.0672 19.2547 12.5438 19.2453C12.3656 19.2453 12.3234 19.3016 12.3234 19.475C12.3281 20.7922 12.3234 22.1094 12.3234 23.4313C12.3234 27.125 12.3234 30.8141 12.3234 34.5078C12.3234 34.625 12.3281 34.7422 12.3328 34.8594C12.2531 34.8641 12.1922 34.8453 12.1922 34.7516C12.1922 34.6906 12.1922 34.625 12.1922 34.5641C12.1922 29.5578 12.1922 24.5563 12.1922 19.55C12.1922 19.1938 12.225 19.1609 12.5766 19.1609C14.0063 19.1609 15.436 19.1609 16.861 19.1656C16.9453 19.1609 17.0719 19.0953 17.1094 19.2547Z" fill="#8D8D99"/>
<path d="M12.8016 15.4484C12.9703 15.4766 13.0875 15.5609 13.1344 15.7297C12.9891 15.6734 12.8813 15.5797 12.8016 15.4484Z" fill="#8D8D99"/>
<path d="M12.6984 15.3173C12.7875 15.3173 12.7922 15.3829 12.8016 15.4485C12.7031 15.4532 12.7031 15.3876 12.6984 15.3173Z" fill="#8D8D99"/>
</svg>
